<?xml version="1.0" standalone="no"?>
<!DOCTYPE svg PUBLIC "-//W3C//DTD SVG 20010904//EN"
 "http://www.w3.org/TR/2001/REC-SVG-20010904/DTD/svg10.dtd">
<svg version="1.0" xmlns="http://www.w3.org/2000/svg"
 width="500.000000pt" height="500.000000pt" viewBox="0 0 500.000000 500.000000"
 preserveAspectRatio="xMidYMid meet">

<g transform="translate(0.000000,500.000000) scale(0.100000,-0.100000)"
fill="#000000" stroke="none">
<path d="M707 4700 c-78 -28 -122 -57 -180 -119 -193 -206 -127 -545 128 -666
213 -100 468 -10 568 202 30 64 32 74 32 183 0 107 -2 119 -29 173 -45 90
-115 160 -203 204 -68 33 -85 38 -167 40 -72 3 -103 -1 -149 -17z"/>
<path d="M4034 4701 c-116 -39 -207 -120 -261 -229 -26 -52 -28 -66 -28 -172
0 -109 2 -119 32 -182 126 -266 473 -326 682 -119 69 68 109 148 120 239 21
167 -46 317 -185 412 -96 67 -250 89 -360 51z"/>
<path d="M2410 4419 c-72 -14 -151 -59 -210 -118 -209 -211 -145 -555 127
-684 63 -30 76 -32 173 -32 97 0 110 2 171 31 112 53 185 133 228 249 25 68
30 174 11 245 -58 220 -274 353 -500 309z"/>
<path d="M50 3822 l0 -268 75 -43 75 -42 2 -1397 c3 -1349 4 -1397 21 -1397
20 0 17 -7 379 940 155 404 154 402 199 270 73 -214 355 -1048 428 -1267 85
-252 99 -286 119 -274 9 5 12 342 12 1327 0 1148 2 1320 15 1325 8 3 54 -3
102 -15 48 -11 155 -32 238 -46 82 -14 153 -29 157 -33 4 -4 9 -595 10 -1312
3 -1145 5 -1305 18 -1305 18 0 10 -19 322 790 137 358 252 656 255 663 3 6 13
12 23 12 19 0 19 -1 134 -300 19 -47 125 -323 236 -615 112 -291 209 -536 216
-544 6 -7 17 -10 23 -7 8 5 11 376 11 1311 0 823 4 1306 10 1310 5 3 64 15
131 26 67 10 173 31 236 45 63 14 121 23 129 20 12 -5 14 -189 16 -1328 3
-1168 5 -1323 18 -1323 18 0 8 -28 316 884 134 399 248 729 253 734 5 5 16 7
23 4 7 -2 74 -164 148 -358 307 -807 358 -934 377 -934 17 0 18 56 21 1397 l2
1396 75 44 75 43 0 268 c0 224 -2 267 -14 267 -8 0 -54 -23 -103 -51 -125 -73
-315 -167 -478 -237 -1137 -490 -2435 -508 -3590 -50 -167 66 -488 220 -608
291 -43 26 -85 47 -93 47 -12 0 -14 -43 -14 -268z"/>
</g>
</svg>
