{  "asset": {    "version": "2.0",    "generator": "THREE.GLTFExporter"  },  "scenes": [    {      "name": "AuxScene",      "nodes": [        1      ]    }  ],  "scene": 0,  "nodes": [    {      "mesh": 0    },    {      "children": [        0      ]    }  ],  "bufferViews": [    {      "buffer": 0,      "byteOffset": 0,      "byteLength": 1474920,      "target": 34962,      "byteStride": 12    },    {      "buffer": 0,      "byteOffset": 1474920,      "byteLength": 1474920,      "target": 34962,      "byteStride": 12    }  ],  "buffers": [    {      "byteLength": 2949840,      "uri": "data:application/octet-stream;base64,"    }  ],  "accessors": [    {      "bufferView": 0,      "componentType": 5126,      "count": 122910,      "max": [        25.3057804107666,        32.16191864013672,        11.266603469848633      ],      "min": [        -25.305774688720703,        -32.16191482543945,        -11.266603469848633      ],      "type": "VEC3"    },    {      "bufferView": 1,      "componentType": 5126,      "count": 122910,      "max": [        1,        1,        1      ],      "min": [        -1,        -1,        -1      ],      "type": "VEC3"    }  ],  "materials": [    {      "pbrMetallicRoughness": {        "baseColorFactor": [          0.5775742874986095,          0.5775742874986095,          0.5775742874986095,          1        ],        "metallicFactor": 0.5,        "roughnessFactor": 0.5      },      "doubleSided": true,      "name": "mat0"    }  ],  "meshes": [    {      "primitives": [        {          "mode": 4,          "attributes": {            "POSITION": 0,            "NORMAL": 1          },          "material": 0        }      ]    }  ]}